@startuml


class NoSenseController {
    -Generator generator
    -Sentence inputSentence
    -Sentence templateSentence
    -Sentence generatedSentence
    -ArrayList<ToxicityResultToken> toxicityResult
    +NoSenseController()
    +void initializeSession(Model model)
    +String index()
    +String analyzeInputSentence(String sentence, boolean requestSyntacticTree, Model model)
    +String generateSentence(String time, Sentence inputSentence, Model model)
    +String saveTerms(Sentence inputSentence, Model model)
    +String analyzeToxicity(Sentence generatedSentence, Model model)
}


class Nouns {
    -ArrayList<String> nouns
    -generatedNumber
    -String filePath
    +Noun()
    +String getNoun()
    +void save(ArrayList<String> nounsForFile)
}
class Verbs {
    -ArrayList<String> verbs
    -ArrayList<String> verbsPresent
    -ArrayList<String> verbsPast
    -ArrayList<String> verbsFuture
    -generatedNumber
    -String filePath
    -String filePathPresent
    -String filePathPast
    -String filePathFuture
    +Verb()
    +String getVerb(String time)
    +void save(String time, ArrayList<String> verbs)
}
class Adjectives {
    -ArrayList<String> adjectives
    -generatedNumber
    -String filePath
    +Adjective()
    +String getAdjective()
    +void save(ArrayList<String> adjectivesForFile)
}
class Sentence {
    -String text
    -ArrayList<AnalysisResultToken> analysisResultTokens
    -ArrayList<ToxicityResultToken> toxicityResultTokens
    +Sentence(String text)
    +String getText()
    +void setText(String text)
    +ArrayList<String> getVerbs(String tense)
    +ArrayList<String> getNouns()
    +ArrayList<String> getAdjectives()
    +ArrayList<AnalysisResultToken> getAnalysisResultTokens()
    +void setAnalysisResultTokens(ArrayList<AnalysisResultToken> analysisResultTokens)
    +ArrayList<ToxicityResultToken> getToxicityResultTokens()
    +void setToxicityResultTokens(ArrayList<ToxicityResultToken> toxicityResultTokens)
}

class Generator {
    -ArrayList<String> templates
    -Nouns nouns
    -Verbs verbs
    -Adjectives adjectives
    -String filePath = "src/main/resources/terms/sentences.txt"
    +Generator()
    +String generateTemplateSentence()
    +Sentence fillTemplateSentence(String template, Sentence inputSentence, String time)
    +void saveFromSentence(Sentence input)
}

class Analyzer {
    -String text
    -static String apiKey;
    +static ArrayList<ToxicityResultToken> analyzeToxicity(String sentence)
    +static ArrayList<AnalysisResultToken> analyzeSyntax(String sentence)
}
class AnalysisResultToken {
    -int index
    -String text
    -String tag
    -String tense
    -String dependencyLabel
    -int dependencyToken
    +AnalysisResultToken(int index, String text, String tag, String dependencyLabel, int dependencyToken, String tense)
    +int getIndex()
    +String getText()
    +String getTag()
    +String getTense()
    +String getDependencyLabel()
    +int getDependencyToken()
}

class FileHandler {
    +static void save(ArrayList<String> terms, ArrayList<String> termsForFile, String filePath)
    +static ArrayList<String> load(String filePath)
}
class ToxicityResultToken {
    -String name
    -Double confidence
    +ToxicityResultToken(String name, Double confidence)
    +String getName()
    +Double getConfidence()
}


package "Graphviz" {
    class GraphvizRenderer {
        -static final String DOT_FILE_PATH
        -static final String PNG_FILE_PATH
        -static final String WEB_PATH
        +static String RenderDependencyGraph(String fileName)
    }

    class GraphvizGenerator {
        -static final String TAB
        -static final String FILE_PATH
        -static final String NODE_TEMPLATE
        -static final String LABEL_TEMPLATE
        -static final String EDGE_TEMPLATE
        -static final String CONTROL_NODE
        -static final String GRAPH_TEMPLATE
        -static final List<String> colors
        +static void GenerateDependencyGraph(ArrayList<AnalysisResultToken> tokens, String fileName)
        -static String FillNodeTemplate(AnalysisResultToken token)
        -static String FillLabelTemplate(AnalysisResultToken token)
        -static String FillEdgeTemplate(String tail, String head, String tailPort, String headPort, String options)
        -static String FillControlNode(AnalysisResultToken token, String color)
        -static String ConnectWithControlNode(AnalysisResultToken token, String color)
        -static String FillGraphTemplate(String _nodes, String _dependencies, String _subgraph, String _controlNodes)
        -static int getNextColor(int _color_index)
    }
}


NoSenseController "1" *-- "many" Sentence : contains
Generator -->Sentence : generates
NoSenseController --> Analyzer : uses
Analyzer --> Sentence : analyzes
Generator "1" *-- "1" Nouns : contains and instantiates
Generator "1" *-- "1" Verbs : contains and instantiates
Generator "1" *-- "1" Adjectives : contains and instantiates
NoSenseController "1" *-- "1" Generator : contains and instantiates
Nouns  --> FileHandler : uses
Verbs  --> FileHandler : uses
Adjectives  --> FileHandler : uses
Generator  --> FileHandler : uses
Sentence "1" *-- "many" AnalysisResultToken : contains
Sentence "1" *-- "many" ToxicityResultToken : contains
NoSenseController --> "Graphviz":uses
@enduml
